<?xml version="1.0" encoding="UTF-8" standalone="no"?>
<!-- Created with Inkscape (http://www.inkscape.org/) -->
<svg xmlns:dc="http://purl.org/dc/elements/1.1/" xmlns:inkscape="http://www.inkscape.org/namespaces/inkscape" xmlns:xlink="http://www.w3.org/1999/xlink" xmlns:sodipodi="http://sodipodi.sourceforge.net/DTD/sodipodi-0.dtd" xmlns:ns1="http://sozi.baierouge.fr" xmlns:cc="http://creativecommons.org/ns#" xmlns:rdf="http://www.w3.org/1999/02/22-rdf-syntax-ns#" xmlns="http://www.w3.org/2000/svg" id="svg2" sodipodi:modified="TRUE" viewBox="0 0 640 640" inkscape:export-ydpi="90" inkscape:export-xdpi="90" version="1.0" inkscape:output_extension="org.inkscape.output.svg.inkscape" sodipodi:docname="stacks_640.svg" inkscape:export-filename="C:\Documents and Settings\Bogdan\Desktop\stacks_640.png" inkscape:version="0.48.5 r10040" sodipodi:version="0.32">
  <title id="title3241">Lined pages</title>
  <defs id="defs4">
    <linearGradient id="linearGradient8125" inkscape:collect="always">
      <stop id="stop8127" style="stop-color:#d9d9d9" offset="0"/>
      <stop id="stop8129" style="stop-color:#d9d9d9;stop-opacity:0" offset="1"/>
    </linearGradient>
    <linearGradient id="linearGradient18371" y2="447.2" xlink:href="#linearGradient8125" gradientUnits="userSpaceOnUse" x2="370.58" gradientTransform="matrix(1.0464 0 0 1.0392 -12.246 -18.294)" y1="447.2" x1="135.75" inkscape:collect="always"/>
  </defs>
  <sodipodi:namedview id="base" inkscape:zoom="0.71363264" height="640px" borderopacity="1.0" inkscape:current-layer="layer1" inkscape:cx="301.20509" inkscape:cy="269.94979" inkscape:window-maximized="1" showgrid="false" width="640px" inkscape:guide-bbox="true" showguides="true" bordercolor="#666666" inkscape:window-x="-8" guidetolerance="10" objecttolerance="10" inkscape:window-y="-8" inkscape:window-width="1280" inkscape:pageopacity="0" inkscape:pageshadow="2" pagecolor="#ffffff" gridtolerance="10000" inkscape:document-units="px" inkscape:window-height="660"/>
  <g id="layer1" inkscape:label="Layer 1" inkscape:groupmode="layer" transform="translate(-145.17 -178.59)">
    <g id="g2277">
      <path id="rect18381" style="fill:#0075ed" d="m533.88 206.05l-118.84 41.15-46.91-7.75-3.62 21.91-97.35 7.84 2.28 28.41-91.59 31.72 118.78 343.09-10.22 61.97 18.47 3.06 2.56 31.78 22.1-1.78 12.44 35.91 116.93-40.5 199.22 32.9 9.16-55.53 15.72-1.25-4.22-52.25 19.22-6.65-14.07-40.63 55.94-338.59-93.4-15.44-3.75-46.44-94.82 7.63-14.03-40.56z"/>
      <g id="g18276" transform="matrix(1.5 0 0 1.5 -43.159 -64.756)">
        <g id="g9102" transform="matrix(.94495 -.32721 .32721 .94495 -66.086 39.491)">
          <rect id="rect2225" style="stroke:#000000;stroke-width:3.5433;fill:#ffffff" height="334.41" width="251.18" y="280.49" x="128.32"/>
          <rect id="rect7146" style="opacity:.3;fill:url(#linearGradient18371)" height="327.97" width="245.73" y="282.47" x="129.8"/>
          <rect id="rect4174" style="stroke-linejoin:round;stroke:#4b4b4b;stroke-width:3.543;fill:#bec1c1" height="9.9086" width="9.4131" y="314.67" x="149.12"/>
          <rect id="rect4176" style="stroke-linejoin:round;stroke:#4b4b4b;stroke-width:3.543;fill:#bec1c1" height="9.9086" width="9.4131" y="341.92" x="148.42"/>
          <rect id="rect4180" style="stroke-linejoin:round;stroke:#4b4b4b;stroke-width:3.543;fill:#bec1c1" height="9.9086" width="9.4131" y="370.16" x="148.42"/>
          <rect id="rect4182" style="stroke-linejoin:round;stroke:#4b4b4b;stroke-width:3.543;fill:#bec1c1" height="9.9086" width="9.4131" y="397.9" x="148.42"/>
          <rect id="rect4184" style="stroke-linejoin:round;stroke:#4b4b4b;stroke-width:3.543;fill:#bec1c1" height="9.9086" width="9.4131" y="425.65" x="148.42"/>
          <rect id="rect4186" style="stroke-linejoin:round;stroke:#4b4b4b;stroke-width:3.543;fill:#bec1c1" height="9.9086" width="9.4131" y="453.89" x="148.42"/>
          <rect id="rect4188" style="stroke-linejoin:round;stroke:#4b4b4b;stroke-width:3.543;fill:#bec1c1" height="9.9086" width="9.4131" y="482.12" x="148.42"/>
          <rect id="rect4190" style="stroke-linejoin:round;stroke:#4b4b4b;stroke-width:3.543;fill:#bec1c1" height="9.9086" width="9.4131" y="511.36" x="148.42"/>
          <rect id="rect4192" style="stroke-linejoin:round;stroke:#4b4b4b;stroke-width:3.543;fill:#bec1c1" height="9.9086" width="9.4131" y="538.6" x="148.42"/>
          <rect id="rect4194" style="stroke-linejoin:round;stroke:#4b4b4b;stroke-width:3.543;fill:#bec1c1" height="9.9086" width="9.4131" y="565.85" x="148.42"/>
          <path id="path5167" style="opacity:.20556;stroke-opacity:.55263;stroke:#ff0000;stroke-width:3.5491;fill:none" d="m172.9 312.69l-0.49 266.04 0.49-266.04z"/>
          <path id="path6138" style="opacity:.20556;stroke:#0068b9;stroke-width:3.5433;fill:none" d="m175.17 314.67h182.32-182.32z"/>
          <path id="path7111" style="opacity:.20556;stroke:#0068b9;stroke-width:3.5433;fill:none" d="m175.17 331.51h182.32-182.32z"/>
          <path id="path7113" style="opacity:.20556;stroke:#0068b9;stroke-width:3.5433;fill:none" d="m175.17 347.37h182.32-182.32z"/>
          <path id="path7115" style="opacity:.20556;stroke:#0068b9;stroke-width:3.5433;fill:none" d="m175.17 363.47h182.32-182.32z"/>
          <path id="path7117" style="opacity:.20556;stroke:#0068b9;stroke-width:3.5433;fill:none" d="m175.17 379.82h182.32-182.32z"/>
          <path id="path7119" style="opacity:.20556;stroke:#0068b9;stroke-width:3.5433;fill:none" d="m175.17 396.17h182.32-182.32z"/>
          <path id="path7121" style="opacity:.20556;stroke:#0068b9;stroke-width:3.5433;fill:none" d="m175.17 412.39h182.32-182.32z"/>
          <path id="path7123" style="opacity:.20556;stroke:#0068b9;stroke-width:3.5433;fill:none" d="m175.17 428.74h182.32-182.32z"/>
          <path id="path7125" style="opacity:.20556;stroke:#0068b9;stroke-width:3.5433;fill:none" d="m175.17 446.58h182.32-182.32z"/>
          <path id="path7127" style="opacity:.20556;stroke:#0068b9;stroke-width:3.5433;fill:none" d="m175.17 460.7h182.32-182.32z"/>
          <path id="path7129" style="opacity:.20556;stroke:#0068b9;stroke-width:3.5433;fill:none" d="m175.17 478.53h182.32-182.32z"/>
          <path id="path7131" style="opacity:.20556;stroke:#0068b9;stroke-width:3.5433;fill:none" d="m175.17 493.89h182.32-182.32z"/>
          <path id="path7133" style="opacity:.20556;stroke:#0068b9;stroke-width:3.5433;fill:none" d="m175.17 510.49h182.32-182.32z"/>
          <path id="path7135" style="opacity:.20556;stroke:#0068b9;stroke-width:3.5433;fill:none" d="m175.17 528.32h182.32-182.32z"/>
          <path id="path7137" style="opacity:.20556;stroke:#0068b9;stroke-width:3.5433;fill:none" d="m175.17 544.67h182.32-182.32z"/>
          <path id="path7139" style="opacity:.20556;stroke:#0068b9;stroke-width:3.5433;fill:none" d="m175.17 561.27h182.32-182.32z"/>
          <path id="path7141" style="opacity:.20556;stroke:#0068b9;stroke-width:3.5433;fill:none" d="m175.17 577.12h182.32-182.32z"/>
        </g>
        <g id="g9134" transform="matrix(.99677 -.080275 .080275 .99677 56.084 -46.813)">
          <rect id="rect9136" style="stroke:#000000;stroke-width:3.5433;fill:#ffffff" height="334.41" width="251.18" y="280.49" x="128.32"/>
          <rect id="rect9138" style="opacity:.3;fill:url(#linearGradient18371)" height="327.97" width="245.73" y="282.47" x="129.8"/>
          <rect id="rect9140" style="stroke-linejoin:round;stroke:#4b4b4b;stroke-width:3.543;fill:#bec1c1" height="9.9086" width="9.4131" y="314.67" x="149.12"/>
          <rect id="rect9142" style="stroke-linejoin:round;stroke:#4b4b4b;stroke-width:3.543;fill:#bec1c1" height="9.9086" width="9.4131" y="341.92" x="148.42"/>
          <rect id="rect9144" style="stroke-linejoin:round;stroke:#4b4b4b;stroke-width:3.543;fill:#bec1c1" height="9.9086" width="9.4131" y="370.16" x="148.42"/>
          <rect id="rect9146" style="stroke-linejoin:round;stroke:#4b4b4b;stroke-width:3.543;fill:#bec1c1" height="9.9086" width="9.4131" y="397.9" x="148.42"/>
          <rect id="rect9148" style="stroke-linejoin:round;stroke:#4b4b4b;stroke-width:3.543;fill:#bec1c1" height="9.9086" width="9.4131" y="425.65" x="148.42"/>
          <rect id="rect9150" style="stroke-linejoin:round;stroke:#4b4b4b;stroke-width:3.543;fill:#bec1c1" height="9.9086" width="9.4131" y="453.89" x="148.42"/>
          <rect id="rect9152" style="stroke-linejoin:round;stroke:#4b4b4b;stroke-width:3.543;fill:#bec1c1" height="9.9086" width="9.4131" y="482.12" x="148.42"/>
          <rect id="rect9154" style="stroke-linejoin:round;stroke:#4b4b4b;stroke-width:3.543;fill:#bec1c1" height="9.9086" width="9.4131" y="511.36" x="148.42"/>
          <rect id="rect9156" style="stroke-linejoin:round;stroke:#4b4b4b;stroke-width:3.543;fill:#bec1c1" height="9.9086" width="9.4131" y="538.6" x="148.42"/>
          <rect id="rect9158" style="stroke-linejoin:round;stroke:#4b4b4b;stroke-width:3.543;fill:#bec1c1" height="9.9086" width="9.4131" y="565.85" x="148.42"/>
          <path id="path9160" style="opacity:.20556;stroke-opacity:.55263;stroke:#ff0000;stroke-width:3.5491;fill:none" d="m172.9 312.69l-0.49 266.04 0.49-266.04z"/>
          <path id="path9162" style="opacity:.20556;stroke:#0068b9;stroke-width:3.5433;fill:none" d="m175.17 314.67h182.32-182.32z"/>
          <path id="path9164" style="opacity:.20556;stroke:#0068b9;stroke-width:3.5433;fill:none" d="m175.17 331.51h182.32-182.32z"/>
          <path id="path9166" style="opacity:.20556;stroke:#0068b9;stroke-width:3.5433;fill:none" d="m175.17 347.37h182.32-182.32z"/>
          <path id="path9168" style="opacity:.20556;stroke:#0068b9;stroke-width:3.5433;fill:none" d="m175.17 363.47h182.32-182.32z"/>
          <path id="path9170" style="opacity:.20556;stroke:#0068b9;stroke-width:3.5433;fill:none" d="m175.17 379.82h182.32-182.32z"/>
          <path id="path9172" style="opacity:.20556;stroke:#0068b9;stroke-width:3.5433;fill:none" d="m175.17 396.17h182.32-182.32z"/>
          <path id="path9174" style="opacity:.20556;stroke:#0068b9;stroke-width:3.5433;fill:none" d="m175.17 412.39h182.32-182.32z"/>
          <path id="path9176" style="opacity:.20556;stroke:#0068b9;stroke-width:3.5433;fill:none" d="m175.17 428.74h182.32-182.32z"/>
          <path id="path9178" style="opacity:.20556;stroke:#0068b9;stroke-width:3.5433;fill:none" d="m175.17 446.58h182.32-182.32z"/>
          <path id="path9180" style="opacity:.20556;stroke:#0068b9;stroke-width:3.5433;fill:none" d="m175.17 460.7h182.32-182.32z"/>
          <path id="path9182" style="opacity:.20556;stroke:#0068b9;stroke-width:3.5433;fill:none" d="m175.17 478.53h182.32-182.32z"/>
          <path id="path9184" style="opacity:.20556;stroke:#0068b9;stroke-width:3.5433;fill:none" d="m175.17 493.89h182.32-182.32z"/>
          <path id="path9186" style="opacity:.20556;stroke:#0068b9;stroke-width:3.5433;fill:none" d="m175.17 510.49h182.32-182.32z"/>
          <path id="path9188" style="opacity:.20556;stroke:#0068b9;stroke-width:3.5433;fill:none" d="m175.17 528.32h182.32-182.32z"/>
          <path id="path9190" style="opacity:.20556;stroke:#0068b9;stroke-width:3.5433;fill:none" d="m175.17 544.67h182.32-182.32z"/>
          <path id="path9192" style="opacity:.20556;stroke:#0068b9;stroke-width:3.5433;fill:none" d="m175.17 561.27h182.32-182.32z"/>
          <path id="path9194" style="opacity:.20556;stroke:#0068b9;stroke-width:3.5433;fill:none" d="m175.17 577.12h182.32-182.32z"/>
        </g>
        <g id="g9198" transform="matrix(.98664 .16294 -.16294 .98664 192.91 -95.017)">
          <rect id="rect9200" style="stroke:#000000;stroke-width:3.5433;fill:#ffffff" height="334.41" width="251.18" y="280.49" x="128.32"/>
          <rect id="rect9202" style="opacity:.3;fill:url(#linearGradient18371)" height="327.97" width="245.73" y="282.47" x="129.8"/>
          <rect id="rect9204" style="stroke-linejoin:round;stroke:#4b4b4b;stroke-width:3.543;fill:#bec1c1" height="9.9086" width="9.4131" y="314.67" x="149.12"/>
          <rect id="rect9206" style="stroke-linejoin:round;stroke:#4b4b4b;stroke-width:3.543;fill:#bec1c1" height="9.9086" width="9.4131" y="341.92" x="148.42"/>
          <rect id="rect9208" style="stroke-linejoin:round;stroke:#4b4b4b;stroke-width:3.543;fill:#bec1c1" height="9.9086" width="9.4131" y="370.16" x="148.42"/>
          <rect id="rect9210" style="stroke-linejoin:round;stroke:#4b4b4b;stroke-width:3.543;fill:#bec1c1" height="9.9086" width="9.4131" y="397.9" x="148.42"/>
          <rect id="rect9212" style="stroke-linejoin:round;stroke:#4b4b4b;stroke-width:3.543;fill:#bec1c1" height="9.9086" width="9.4131" y="425.65" x="148.42"/>
          <rect id="rect9214" style="stroke-linejoin:round;stroke:#4b4b4b;stroke-width:3.543;fill:#bec1c1" height="9.9086" width="9.4131" y="453.89" x="148.42"/>
          <rect id="rect9216" style="stroke-linejoin:round;stroke:#4b4b4b;stroke-width:3.543;fill:#bec1c1" height="9.9086" width="9.4131" y="482.12" x="148.42"/>
          <rect id="rect9218" style="stroke-linejoin:round;stroke:#4b4b4b;stroke-width:3.543;fill:#bec1c1" height="9.9086" width="9.4131" y="511.36" x="148.42"/>
          <rect id="rect9220" style="stroke-linejoin:round;stroke:#4b4b4b;stroke-width:3.543;fill:#bec1c1" height="9.9086" width="9.4131" y="538.6" x="148.42"/>
          <rect id="rect9222" style="stroke-linejoin:round;stroke:#4b4b4b;stroke-width:3.543;fill:#bec1c1" height="9.9086" width="9.4131" y="565.85" x="148.42"/>
          <path id="path9224" style="opacity:.20556;stroke-opacity:.55263;stroke:#ff0000;stroke-width:3.5491;fill:none" d="m172.9 312.69l-0.49 266.04 0.49-266.04z"/>
          <path id="path9226" style="opacity:.20556;stroke:#0068b9;stroke-width:3.5433;fill:none" d="m175.17 314.67h182.32-182.32z"/>
          <path id="path9228" style="opacity:.20556;stroke:#0068b9;stroke-width:3.5433;fill:none" d="m175.17 331.51h182.32-182.32z"/>
          <path id="path9230" style="opacity:.20556;stroke:#0068b9;stroke-width:3.5433;fill:none" d="m175.17 347.37h182.32-182.32z"/>
          <path id="path9232" style="opacity:.20556;stroke:#0068b9;stroke-width:3.5433;fill:none" d="m175.17 363.47h182.32-182.32z"/>
          <path id="path9234" style="opacity:.20556;stroke:#0068b9;stroke-width:3.5433;fill:none" d="m175.17 379.82h182.32-182.32z"/>
          <path id="path9236" style="opacity:.20556;stroke:#0068b9;stroke-width:3.5433;fill:none" d="m175.17 396.17h182.32-182.32z"/>
          <path id="path9238" style="opacity:.20556;stroke:#0068b9;stroke-width:3.5433;fill:none" d="m175.17 412.39h182.32-182.32z"/>
          <path id="path9240" style="opacity:.20556;stroke:#0068b9;stroke-width:3.5433;fill:none" d="m175.17 428.74h182.32-182.32z"/>
          <path id="path9242" style="opacity:.20556;stroke:#0068b9;stroke-width:3.5433;fill:none" d="m175.17 446.58h182.32-182.32z"/>
          <path id="path9244" style="opacity:.20556;stroke:#0068b9;stroke-width:3.5433;fill:none" d="m175.17 460.7h182.32-182.32z"/>
          <path id="path9246" style="opacity:.20556;stroke:#0068b9;stroke-width:3.5433;fill:none" d="m175.17 478.53h182.32-182.32z"/>
          <path id="path9248" style="opacity:.20556;stroke:#0068b9;stroke-width:3.5433;fill:none" d="m175.17 493.89h182.32-182.32z"/>
          <path id="path9250" style="opacity:.20556;stroke:#0068b9;stroke-width:3.5433;fill:none" d="m175.17 510.49h182.32-182.32z"/>
          <path id="path9252" style="opacity:.20556;stroke:#0068b9;stroke-width:3.5433;fill:none" d="m175.17 528.32h182.32-182.32z"/>
          <path id="path9254" style="opacity:.20556;stroke:#0068b9;stroke-width:3.5433;fill:none" d="m175.17 544.67h182.32-182.32z"/>
          <path id="path9256" style="opacity:.20556;stroke:#0068b9;stroke-width:3.5433;fill:none" d="m175.17 561.27h182.32-182.32z"/>
          <path id="path9258" style="opacity:.20556;stroke:#0068b9;stroke-width:3.5433;fill:none" d="m175.17 577.12h182.32-182.32z"/>
        </g>
      </g>
    </g>
  </g>
  <metadata>
    <rdf:RDF>
      <cc:Work>
        <dc:format>image/svg+xml</dc:format>
        <dc:type rdf:resource="http://purl.org/dc/dcmitype/StillImage"/>
        <cc:license rdf:resource="http://creativecommons.org/licenses/publicdomain/"/>
        <dc:publisher>
          <cc:Agent rdf:about="http://openclipart.org/">
            <dc:title>Openclipart</dc:title>
          </cc:Agent>
        </dc:publisher>
      </cc:Work>
      <cc:License rdf:about="http://creativecommons.org/licenses/publicdomain/">
        <cc:permits rdf:resource="http://creativecommons.org/ns#Reproduction"/>
        <cc:permits rdf:resource="http://creativecommons.org/ns#Distribution"/>
        <cc:permits rdf:resource="http://creativecommons.org/ns#DerivativeWorks"/>
      </cc:License>
    </rdf:RDF>
  </metadata>
</svg>
